<svg xmlns="http://www.w3.org/2000/svg" viewBox="0 0 210.83 233"><defs><style>.cls-1{fill:#28af28;}</style></defs><title>Recurso 2-</title><g id="Capa_2" data-name="Capa 2"><g id="Capa_1-2" data-name="Capa 1"><path class="cls-1" d="M82.7,160.23q-29.52,0-59,0c-8.78,0-14.5,5.72-14.51,14.5q0,17.17,0,34.35c0,9.1,5.65,14.76,14.73,14.76q58.8,0,117.59,0c9.08,0,14.74-5.67,14.75-14.75q0-16.93,0-33.89c0-9.42-5.56-15-15-15Z"/><rect class="cls-1" x="71.2" y="53.55" width="34.59" height="80.7"/><path d="M178.53,0a23.32,23.32,0,0,1,3.61,3.05c8.71,8.76,17.41,17.52,26.19,26.2a7.84,7.84,0,0,1,2.49,6c-.07,19.71,0,39.43,0,59.14a15.57,15.57,0,0,1-.07,2.27,4.53,4.53,0,0,1-9,0,18.94,18.94,0,0,1-.06-2.5c0-17.82-.05-35.64.05-53.46,0-2.15-.64-2.59-2.64-2.56-6.8.12-13.62.05-20.43.05-4.59,0-6-1.5-6.06-6.17,0-7,0-14,0-20.93,0-1.53-.31-2.07-2-2.06q-60.74.06-121.48,0c-1.64,0-2,.51-2,2.05q.06,68.93,0,137.86c0,2,.8,2.11,2.37,2.11q46.2,0,92.41,0c12.1,0,21.24,7.83,23.14,19.79a26.44,26.44,0,0,1,.21,4.08c0,9.48,0,19,0,28.44.05,7.06.4,14.15-4.66,20.5h2.54c12,0,24.06,0,36.1,0,1.88,0,2.36-.46,2.36-2.36q-.1-40.83,0-81.67v-1.82c0-3.45,1.79-5.63,4.56-5.61s4.53,2.15,4.54,5.63q0,44.35.05,88.72c0,2.8-.77,4.84-3.23,6.18h-188a3.51,3.51,0,0,0-.78-.38C7.34,230.2.07,221.36,0,209.72c0-12.05-.08-24.11,0-36.16A22.49,22.49,0,0,1,18.9,151.48c5.55-.91,11.18-.34,16.76-.33,2.11,0,2.57-.59,2.57-2.63q-.09-71.16-.09-142.34c0-2.8.75-4.85,3.22-6.18ZM82.7,160.23q-29.52,0-59,0c-8.78,0-14.5,5.72-14.51,14.5q0,17.17,0,34.35c0,9.1,5.65,14.76,14.73,14.76q58.8,0,117.59,0c9.08,0,14.74-5.67,14.75-14.75q0-16.93,0-33.89c0-9.42-5.56-15-15-15Zm99-143.87c0,3.77,0,7.61,0,11.45,0,.81.17,1.28,1.11,1.27,3.9,0,7.79,0,11.5,0C190.16,24.84,186,20.64,181.74,16.36Z"/><path d="M124.57,50.05H177.7c4.35,0,5.84,1.49,5.84,5.89v77.34c0,4.46-1.53,6-6,6h-106c-4.6,0-6.07-1.49-6.07-6.16V56.21c0-4.8,1.39-6.16,6.26-6.16Zm17.84,26.71c10,0,20,0,30,0,1.5,0,2.14-.27,2.1-2-.11-4.62-.08-9.25,0-13.87,0-1.34-.27-1.83-1.73-1.82q-30.09.07-60.16,0c-1.44,0-1.78.44-1.75,1.8.07,4.55.13,9.1,0,13.65-.07,1.9.63,2.22,2.32,2.21C122.89,76.72,132.65,76.76,142.41,76.76Zm.21,35.73c-9.91,0-19.82,0-29.72,0-1.51,0-2.13.29-2.08,2,.11,4.62.1,9.24,0,13.86,0,1.52.47,1.88,1.92,1.88q29.94-.07,59.88,0c1.56,0,1.88-.52,1.85-1.94-.08-4.55-.11-9.1,0-13.64.05-1.72-.46-2.15-2.15-2.14C162.43,112.53,152.52,112.49,142.62,112.49Zm-.06-9.12c10,0,20,0,30,0,1.41,0,2-.29,1.95-1.86-.11-4.62-.09-9.25,0-13.87,0-1.37-.36-1.82-1.77-1.82q-30.08.06-60.14,0c-1.49,0-1.73.58-1.71,1.87.07,4.48.11,9,0,13.42-.06,1.77.43,2.29,2.23,2.27C122.89,103.32,132.73,103.37,142.56,103.37ZM88.14,59.19c-3.93,0-7.86.05-11.79,0-1.31,0-1.87.25-1.84,1.73.1,4.69.09,9.39,0,14.08,0,1.47.53,1.77,1.84,1.76q11.79-.08,23.58,0c1.33,0,1.86-.32,1.83-1.77-.08-4.69-.09-9.39,0-14.08,0-1.5-.56-1.74-1.85-1.71C96,59.23,92.07,59.19,88.14,59.19Zm0,70.91c4,0,8,0,12,0,1.14,0,1.6-.27,1.58-1.51-.06-4.85-.05-9.71,0-14.56,0-1.22-.43-1.54-1.58-1.54q-12,.06-24.07,0c-1.15,0-1.6.32-1.58,1.54,0,4.85.06,9.71,0,14.56,0,1.24.44,1.53,1.58,1.51C80.12,130.07,84.13,130.1,88.15,130.1Zm.06-44.19c-4,0-8,0-12,0-1.29,0-1.68.41-1.67,1.69q.11,7,0,14.09c0,1.26.33,1.71,1.64,1.7q11.91-.08,23.82,0c1.38,0,1.81-.39,1.78-1.79-.08-4.62-.1-9.25,0-13.86,0-1.63-.65-1.85-2-1.83C95.93,86,92.07,85.91,88.21,85.91Z"/><path d="M210.76,116.62a4.53,4.53,0,0,1-9.06-.14,4.53,4.53,0,1,1,9.06.14Z"/><path d="M63.43,211.39a4.5,4.5,0,0,1-3.47-2c-2.55-3.23-5.19-6.38-7.66-9.67-1-1.38-1.54-1.13-2.46.06-2.58,3.36-5.27,6.65-7.93,10A3.82,3.82,0,0,1,38,211.31a3.77,3.77,0,0,1-3-2.73,4.25,4.25,0,0,1,1.11-4.08c3-3.76,6-7.56,9-11.28a1.56,1.56,0,0,0,0-2.41c-3-3.67-6-7.41-8.92-11.13-1.84-2.33-1.79-4.62.09-6.13s4.14-1.05,6,1.25c2.58,3.2,5.18,6.39,7.68,9.65.9,1.18,1.37,1.08,2.22,0,2.51-3.26,5.1-6.45,7.68-9.66,1.83-2.27,4.11-2.7,6-1.17s1.91,3.76.16,6c-3,3.73-5.88,7.48-8.93,11.12-.9,1.08-.8,1.7,0,2.73,3.11,3.76,6.12,7.61,9.15,11.44a3.79,3.79,0,0,1,.5,4.49A3.75,3.75,0,0,1,63.43,211.39Z"/><path d="M116.45,211.38c-1.09,0-2.19.06-3.28,0a3.88,3.88,0,0,1,.09-7.75c1.73-.07,3.46,0,5.2,0,2.51,0,4.23-1.58,4.27-3.75a3.81,3.81,0,0,0-4.34-3.85A11.91,11.91,0,0,1,106,186.6a11.66,11.66,0,0,1,10.69-13.88c1.66-.07,3.34-.06,5,0a3.89,3.89,0,1,1-.07,7.77c-1.29,0-2.57,0-3.86,0-2.48.06-4.19,1.66-4.17,3.85s1.73,3.75,4.24,3.78a15.16,15.16,0,0,1,4.74.59,11.62,11.62,0,0,1-3.43,22.66c-.9,0-1.79,0-2.69,0Z"/><path d="M75,191.93c0-4.82,0-9.65,0-14.47,0-3,1.43-4.73,3.85-4.75s3.93,1.73,3.93,4.67c0,8.1,0,16.21,0,24.31,0,1.47.31,2,1.88,1.94,3.08-.13,6.16-.06,9.24,0,2.61,0,4.33,1.6,4.32,3.9s-1.72,3.87-4.34,3.88q-7.32,0-14.63,0A3.87,3.87,0,0,1,75,207.17C74.93,202.09,75,197,75,191.93Z"/></g></g></svg>