<svg xmlns="http://www.w3.org/2000/svg" viewBox="0 0 304.96 227.93"><defs><style>.cls-1{fill:#7e70c8;}.cls-2{fill:#fcfa12;}.cls-3{fill:#fff;}.cls-4{fill:#fe7201;}.cls-5{fill:aqua;}</style></defs><title>Recurso 1-</title><g id="Capa_2" data-name="Capa 2"><g id="Capa_1-2" data-name="Capa 1"><rect class="cls-1" x="50.64" y="5.06" width="213.94" height="46.45"/><path d="M0,11.83a6.08,6.08,0,0,0,.46-.92C2.66,3.84,7.67,0,15.09,0Q50.25,0,85.42,0c3.26,0,5.09,1.47,5.15,4s-1.91,4-5.16,4C76.72,8.06,68,8,59.33,8H56V47.49h205.7V42.92q0-13.31,0-26.61c0-6-2.14-8.17-8-8.18L107.8,8a17.16,17.16,0,0,1-3.66-.25,3.53,3.53,0,0,1-3-4A3.65,3.65,0,0,1,104.54.1,19.27,19.27,0,0,1,107.17,0H253.63C264,0,269.76,5.79,269.76,16.16V176.08c0,10.35-5.76,16.2-16.08,16.26-6.94,0-13.87,0-20.81,0-.53,0-1.06,0-1.58,0-2.48-.26-4.08-1.86-4.06-4s1.69-3.76,4.18-3.84,5.27,0,7.9,0c5.09,0,10.19,0,15.28-.08,4.8-.11,7.2-2.66,7.23-7.47,0-6.12,0-12.25,0-18.52H198.71v26.07c3.17,0,6.37,0,9.58,0,1.58,0,3.17-.07,4.74.07a3.55,3.55,0,0,1,3.57,3.79,3.59,3.59,0,0,1-3.44,3.92,28.08,28.08,0,0,1-3.67.13H18c-10.56,0-14.11-2.35-18-11.89ZM47.62,184c.06-1,.13-1.77.13-2.54q0-61.5.06-123c0-2.3-.81-2.75-2.89-2.74-11.41.09-22.82,0-34.23,0-.85,0-1.71.1-2.58.15,0,.77-.11,1.29-.11,1.81q0,59.52,0,119.05c0,4.86,2.41,7.37,7.23,7.4,10.18.07,20.36,0,30.54,0C46.3,184.23,46.82,184.12,47.62,184Zm142.8-128.2H127.2V81.74h63.22ZM127.2,116h63.14V90H127.2Zm0,8.22v25.93h63.12V124.19Zm63.1,60.06V158.37h-63.1v25.88ZM56,55.81v26h63V55.81Zm205.74,0H198.63V81.77H261.7ZM119,90h-63v26h63Zm142.74,0H198.63V116h63.08ZM55.89,150.08h63.05V124.22h-63Zm142.72,0h63V124.25h-63ZM119,184.26V158.37H56v25.89ZM27.6,47.49c5.7,0,11.4-.08,17.1,0,2,0,2.79-.52,2.78-2.64q-.12-17,0-33.94c0-2-.61-2.73-2.72-2.71-9.82.1-19.64,0-29.46,0-4.62,0-7.15,2.45-7.18,7.14-.06,9.91,0,19.82,0,29.73,0,1.9.64,2.39,2.43,2.36C16.2,47.43,21.9,47.49,27.6,47.49Z"/><path class="cls-2" d="M47.62,184c-.8.09-1.32.2-1.84.2-10.18,0-20.36.05-30.54,0-4.82,0-7.23-2.54-7.23-7.4q0-59.52,0-119c0-.52.07-1,.11-1.81.87-.05,1.73-.15,2.58-.15,11.41,0,22.82,0,34.23,0,2.08,0,2.89.44,2.89,2.74q-.11,61.5-.06,123C47.75,182.26,47.68,183,47.62,184Z"/><path class="cls-3" d="M190.42,55.83V81.74H127.2V55.83Z"/><path class="cls-3" d="M127.2,116V90h63.14v26Z"/><path class="cls-3" d="M127.24,124.19h63.12v25.93H127.24Z"/><path class="cls-3" d="M190.34,184.25h-63.1V158.37h63.1Z"/><path class="cls-3" d="M56,55.81h63v26H56Z"/><path class="cls-3" d="M261.7,55.85V81.77H198.63V55.85Z"/><path class="cls-3" d="M119,90v26h-63V90Z"/><path class="cls-3" d="M261.71,90V116H198.63V90Z"/><path class="cls-3" d="M55.89,150.08V124.22h63.05v25.86Z"/><path class="cls-3" d="M198.61,150V124.25h63V150Z"/><path class="cls-3" d="M119,184.26H56V158.37h63Z"/><path class="cls-4" d="M27.6,47.49c-5.7,0-11.4-.06-17.1,0-1.79,0-2.45-.46-2.43-2.36.08-9.91,0-19.82,0-29.73,0-4.69,2.56-7.13,7.18-7.14,9.82,0,19.64.05,29.46,0,2.11,0,2.73.68,2.72,2.71q-.1,17,0,33.94c0,2.12-.75,2.68-2.78,2.64C39,47.41,33.3,47.49,27.6,47.49Z"/><path d="M296.08,226.71c-9.93-9.92-30.94-31.27-31.49-32-26.8,21.08-61.61,13.79-79.06-8.61a55.47,55.47,0,0,1,78.28-77.58c22.8,18.24,28.65,53,8,79,.73.47,21.84,21,31.55,30.76C308.43,223.26,300.28,230.91,296.08,226.71Zm-66.87-30.48a44.35,44.35,0,1,0-44.44-44.57A44.38,44.38,0,0,0,229.21,196.23Z"/><path class="cls-5" d="M229.21,196.23a44.35,44.35,0,1,0-44.44-44.16A44.38,44.38,0,0,0,229.21,196.23Z"/></g></g></svg>