<svg xmlns="http://www.w3.org/2000/svg" width="75.125" height="75.124" viewBox="0 0 75.125 75.124">
  <g id="reporte" transform="translate(0 -0.004)">
    <path id="Trazado_1270" data-name="Trazado 1270" d="M38.564,85.158h63.808v50.135H38.564Z" transform="translate(-32.906 -72.659)" fill="#eaf6ff"/>
    <path id="Trazado_1271" data-name="Trazado 1271" d="M102.369,85.16v2.935H42.962v47.2h-4.4V85.16Z" transform="translate(-32.902 -72.661)" fill="#d8ecfe"/>
    <g id="Grupo_1675" data-name="Grupo 1675" transform="translate(12.495 19.335)">
      <circle id="Elipse_169" data-name="Elipse 169" cx="2.279" cy="2.279" r="2.279" transform="translate(2.279 31.904)" fill="#ade194"/>
      <circle id="Elipse_170" data-name="Elipse 170" cx="2.279" cy="2.279" r="2.279" transform="translate(15.94 27.347)" fill="#ade194"/>
      <circle id="Elipse_171" data-name="Elipse 171" cx="2.279" cy="2.279" r="2.279" transform="translate(43.298 22.777)" fill="#ade194"/>
      <path id="Trazado_1272" data-name="Trazado 1272" d="M107.948,143.145A11.394,11.394,0,1,1,96.553,131.75,11.395,11.395,0,0,1,107.948,143.145Z" transform="translate(-85.16 -131.75)" fill="#ade194"/>
    </g>
    <path id="Trazado_1273" data-name="Trazado 1273" d="M174.2,143.145H162.81V131.75A11.4,11.4,0,0,1,174.2,143.145Z" transform="translate(-138.921 -112.415)" fill="#f07281"/>
    <path id="Trazado_1274" data-name="Trazado 1274" d="M7.5,38.566H80.427V45.4H7.5Z" transform="translate(-6.403 -32.904)" fill="#5680a6"/>
    <path id="Trazado_1275" data-name="Trazado 1275" d="M7.5,38.57h7.336V45.4H7.5Z" transform="translate(-6.4 -32.907)" fill="#497090"/>
    <path id="Trazado_1276" data-name="Trazado 1276" d="M216.574,7.5h11.57v4.558h-11.57Z" transform="translate(-184.796 -6.4)" fill="#ffb850"/>
    <circle id="Elipse_172" data-name="Elipse 172" cx="3.456" cy="3.456" r="3.456" transform="translate(34.106 67.115)" fill="#ffb850"/>
    <path id="Trazado_1277" data-name="Trazado 1277" d="M287.062,131.751h4.558v4.558h-4.558Z" transform="translate(-244.942 -112.416)" fill="#ade194"/>
    <path id="Trazado_1278" data-name="Trazado 1278" d="M287.062,193.875h4.558v4.558h-4.558Z" transform="translate(-244.942 -165.425)" fill="#f07281"/>
    <circle id="Elipse_173" data-name="Elipse 173" cx="2.279" cy="2.279" r="2.279" transform="translate(43.283 48.295)" fill="#f07281"/>
    <g id="Grupo_1676" data-name="Grupo 1676" transform="translate(0 0.004)">
      <path id="Trazado_1279" data-name="Trazado 1279" d="M74.025,4.562H62.043a1.1,1.1,0,1,0,0,2.2H72.924V11.4H2.2V6.763H57.248a1.1,1.1,0,1,0,0-2.2h-12.8V1.1a1.1,1.1,0,0,0-1.1-1.1H31.778a1.1,1.1,0,0,0-1.1,1.1V4.562H1.1A1.1,1.1,0,0,0,0,5.663V12.5a1.1,1.1,0,0,0,1.1,1.1H4.557V62.633a1.1,1.1,0,0,0,1.1,1.1h9a1.1,1.1,0,1,0,0-2.2h-7.9V13.6H68.367V42a1.1,1.1,0,1,0,2.2,0V13.6h3.457a1.1,1.1,0,0,0,1.1-1.1V5.663a1.1,1.1,0,0,0-1.1-1.1ZM32.878,2.2h9.369V4.562H32.878Z" transform="translate(0 -0.004)"/>
      <path id="Trazado_1280" data-name="Trazado 1280" d="M176.177,311.44a1.1,1.1,0,0,0-1.1,1.1v14.732H126.16a1.1,1.1,0,0,0,0,2.2h17.012v2.416a4.557,4.557,0,1,0,2.2,0v-2.416h30.8a1.1,1.1,0,0,0,1.1-1.1V312.54A1.1,1.1,0,0,0,176.177,311.44Zm-29.549,24.87a2.356,2.356,0,1,1-2.356-2.356A2.358,2.358,0,0,1,146.629,336.31Z" transform="translate(-106.71 -265.743)"/>
      <path id="Trazado_1281" data-name="Trazado 1281" d="M280.662,131.009h4.558a1.1,1.1,0,0,0,1.1-1.1V125.35a1.1,1.1,0,0,0-1.1-1.1h-4.558a1.1,1.1,0,0,0-1.1,1.1v4.558A1.1,1.1,0,0,0,280.662,131.009Zm1.1-4.558h2.357v2.357h-2.357Z" transform="translate(-238.542 -106.02)"/>
      <path id="Trazado_1282" data-name="Trazado 1282" d="M342.787,126.452H351.2a1.1,1.1,0,1,0,0-2.2h-8.409a1.1,1.1,0,0,0,0,2.2Z" transform="translate(-291.552 -106.02)"/>
      <path id="Trazado_1283" data-name="Trazado 1283" d="M342.787,157.514h11.394a1.1,1.1,0,0,0,0-2.2H342.787a1.1,1.1,0,1,0,0,2.2Z" transform="translate(-291.552 -132.525)"/>
      <path id="Trazado_1284" data-name="Trazado 1284" d="M279.562,192.033a1.1,1.1,0,0,0,1.1,1.1h4.558a1.1,1.1,0,0,0,1.1-1.1v-4.558a1.1,1.1,0,0,0-1.1-1.1h-4.558a1.1,1.1,0,0,0-1.1,1.1Zm2.2-3.457h2.357v2.357h-2.357Z" transform="translate(-238.542 -159.029)"/>
      <path id="Trazado_1285" data-name="Trazado 1285" d="M342.787,188.576H351.2a1.1,1.1,0,1,0,0-2.2h-8.409a1.1,1.1,0,0,0,0,2.2Z" transform="translate(-291.552 -159.029)"/>
      <path id="Trazado_1286" data-name="Trazado 1286" d="M342.787,219.639h11.394a1.1,1.1,0,0,0,0-2.2H342.787a1.1,1.1,0,1,0,0,2.2Z" transform="translate(-291.552 -185.534)"/>
      <path id="Trazado_1287" data-name="Trazado 1287" d="M90.152,149.241a12.495,12.495,0,1,0-12.495-12.495A12.509,12.509,0,0,0,90.152,149.241Zm10.234-13.6H91.252v-9.134A10.312,10.312,0,0,1,100.386,135.645Zm-11.335-9.134v10.234a1.1,1.1,0,0,0,1.1,1.1h10.234a10.294,10.294,0,1,1-11.335-11.335Z" transform="translate(-66.263 -106.02)"/>
      <path id="Trazado_1288" data-name="Trazado 1288" d="M96.568,295.368a3.383,3.383,0,0,0,3.372-3.171l7.663-2.643a3.376,3.376,0,0,0,5.765-.873l8.473,1.339a3.379,3.379,0,0,0,6.6-.646l6.612-4.283a3.377,3.377,0,1,0-.843-2.23c0,.051,0,.1,0,.152l-6.354,4.116a3.377,3.377,0,0,0-5.925.678l-8.465-1.338a3.379,3.379,0,0,0-6.618.962c0,.018,0,.036,0,.054l-7.5,2.588a3.379,3.379,0,1,0-2.781,5.3Zm41.019-13.685a1.178,1.178,0,1,1-1.178,1.178A1.18,1.18,0,0,1,137.588,281.683Zm-12.511,6.184a1.178,1.178,0,1,1-1.178,1.178A1.18,1.18,0,0,1,125.077,287.867Zm-14.847-1.614a1.178,1.178,0,1,1-1.178,1.178A1.18,1.18,0,0,1,110.23,286.253ZM96.568,290.81a1.178,1.178,0,1,1-1.178,1.178A1.18,1.18,0,0,1,96.568,290.81Z" transform="translate(-79.516 -238.475)"/>
    </g>
  </g>
</svg>
